<?xml version="1.0" encoding="iso-8859-1"?>
<!-- Generator: Adobe Illustrator 19.0.0, SVG Export Plug-In . SVG Version: 6.00 Build 0)  -->
<svg version="1.1" id="Capa_1" xmlns="http://www.w3.org/2000/svg" xmlns:xlink="http://www.w3.org/1999/xlink" x="0px" y="0px"
	 viewBox="0 0 512 512" style="enable-background:new 0 0 512 512;" xml:space="preserve">
<path style="fill:#7C75DA;" d="M512,112.739v286.532c0,22.193-18.06,40.253-40.263,40.253H40.253C18.06,439.524,0,421.464,0,399.271
	V112.739c0-22.203,18.06-40.263,40.253-40.263h431.484C493.94,72.476,512,90.536,512,112.739z"/>
<path style="fill:#615AD3;" d="M512,112.739v286.532c0,22.193-18.06,40.253-40.263,40.253H255.845V72.476h215.892
	C493.94,72.476,512,90.536,512,112.739z"/>
<path style="fill:#FFE899;" d="M512,112.739v49.708H0v-49.708c0-22.203,18.06-40.263,40.253-40.263h431.484
	C493.94,72.476,512,90.536,512,112.739z"/>
<path style="fill:#FFD27B;" d="M512,112.739v49.708H255.845V72.476h215.892C493.94,72.476,512,90.536,512,112.739z"/>
<path style="fill:#51FAFF;" d="M130.794,72.476v367.048H40.253C18.06,439.524,0,421.464,0,399.271V112.739
	c0-22.203,18.06-40.263,40.253-40.263L130.794,72.476L130.794,72.476z"/>
<g>
	<path style="fill:#FFFFFF;" d="M198.784,300.613v-32.314c0-9.918,2.703-17.195,8.11-21.827c5.405-4.634,12.457-6.95,21.157-6.95
		c8.942,0,16.279,2.154,22.01,6.463c5.731,4.31,8.597,10.243,8.597,17.803c0,3.497-0.731,5.874-2.194,7.134
		c-1.464,1.262-3.902,1.89-7.317,1.89c-6.097,0-9.268-1.908-9.511-5.731c-0.244-7.317-3.862-10.975-10.853-10.975
		c-7.317,0-10.975,4.065-10.975,12.195v32.314c0,8.131,3.698,12.195,11.097,12.195c2.274,0,4.165-0.365,5.67-1.098
		c1.503-0.731,2.579-1.848,3.231-3.354c0.649-1.503,1.077-2.744,1.281-3.719c0.202-0.977,0.385-2.316,0.548-4.024
		c0.324-3.819,3.455-5.731,9.389-5.731c3.495,0,5.975,0.63,7.439,1.89c1.463,1.262,2.194,3.64,2.194,7.134
		c0,7.886-2.866,14.106-8.597,18.657c-5.731,4.555-13.069,6.829-22.01,6.829c-8.7,0-15.752-2.316-21.157-6.951
		C201.486,317.808,198.784,310.533,198.784,300.613z"/>
	<path style="fill:#FFFFFF;" d="M268.29,322.808v-77.556c0-1.543,0.548-2.885,1.647-4.023c1.098-1.138,2.499-1.707,4.207-1.707
		h25.242c19.998,0,29.998,8.699,29.998,26.095c0,12.682-4.92,20.935-14.755,24.754l14.877,26.95
		c0.405,0.569,0.609,1.302,0.609,2.194c0,2.358-1.281,4.595-3.841,6.707c-2.56,2.115-5.264,3.171-8.109,3.171
		c-2.847,0-4.878-1.178-6.097-3.536l-16.705-32.437h-8.049v29.389c0,1.871-0.936,3.314-2.805,4.328
		c-1.871,1.018-4.106,1.524-6.707,1.524c-2.603,0-4.838-0.507-6.707-1.524C269.224,326.121,268.29,324.679,268.29,322.808z
		 M287.314,278.787h12.072c3.576,0,6.299-0.873,8.171-2.622c1.869-1.747,2.805-4.652,2.805-8.719c0-4.064-0.936-6.97-2.805-8.719
		c-1.871-1.747-4.594-2.621-8.171-2.621h-12.072V278.787z"/>
	<path style="fill:#FFFFFF;" d="M339.504,322.808v-73.775c0-3.251,0.915-5.649,2.744-7.194c1.829-1.544,4.085-2.316,6.768-2.316
		c3.658,0,6.442,0.548,8.353,1.646c1.909,1.098,4.043,3.72,6.402,7.865l12.56,21.949l12.56-21.949
		c2.356-4.146,4.491-6.769,6.402-7.865c1.909-1.098,4.695-1.646,8.353-1.646c2.682,0,4.939,0.772,6.768,2.316
		c1.829,1.545,2.744,3.943,2.744,7.194v73.775c0,1.871-0.936,3.314-2.805,4.328c-1.871,1.018-4.106,1.524-6.707,1.524
		c-2.603,0-4.838-0.507-6.707-1.524c-1.871-1.016-2.805-2.457-2.805-4.328v-45.729l-11.707,19.998
		c-1.383,2.358-3.496,3.536-6.341,3.536c-2.765,0-4.756-1.178-5.975-3.536l-11.585-21.218v46.949c0,1.871-0.936,3.314-2.805,4.328
		c-1.871,1.018-4.106,1.524-6.707,1.524c-2.603,0-4.838-0.507-6.707-1.524C340.438,326.121,339.504,324.679,339.504,322.808z"/>
</g>
<g>
</g>
<g>
</g>
<g>
</g>
<g>
</g>
<g>
</g>
<g>
</g>
<g>
</g>
<g>
</g>
<g>
</g>
<g>
</g>
<g>
</g>
<g>
</g>
<g>
</g>
<g>
</g>
<g>
</g>
</svg>
